<?xml version="1.0" encoding="UTF-8" standalone="no"?>
<!DOCTYPE svg PUBLIC "-//W3C//DTD SVG 20010904//EN"
              "http://www.w3.org/TR/2001/REC-SVG-20010904/DTD/svg10.dtd">

<svg xmlns="http://www.w3.org/2000/svg"
     width="42.3334mm" height="42.3334mm"
     viewBox="0 0 500 500">
  <path id="Selection"
        fill="white" stroke="white" stroke-width="1"
        d="M 339.00,106.00
           C 342.73,101.77 348.18,99.45 353.00,96.60
             362.14,91.20 367.22,88.02 378.00,88.00
             378.00,88.00 382.00,88.00 382.00,88.00
             393.17,88.05 397.86,91.63 407.00,97.32
             407.00,97.32 418.00,103.93 418.00,103.93
             423.95,108.27 440.65,126.72 445.66,133.00
             445.66,133.00 453.96,143.00 453.96,143.00
             460.35,152.05 465.98,165.88 466.00,177.00
             466.00,177.00 466.00,189.00 466.00,189.00
             465.87,198.22 462.62,198.39 463.53,202.28
             463.53,202.28 468.47,215.00 468.47,215.00
             469.28,218.57 469.01,227.86 469.00,232.00
             468.99,237.86 468.86,240.46 466.54,246.00
             465.13,249.35 462.83,252.35 462.11,256.00
             462.11,256.00 462.11,264.00 462.11,264.00
             461.89,272.01 458.49,277.30 452.91,282.91
             450.24,285.59 445.54,288.81 443.88,292.00
             442.54,294.59 443.05,298.12 442.98,301.00
             442.55,319.63 421.34,329.48 406.00,334.67
             406.00,334.67 394.00,338.79 394.00,338.79
             389.91,339.39 386.06,338.20 382.00,338.04
             373.80,337.72 372.94,339.45 366.00,342.57
             366.00,342.57 344.00,353.00 344.00,353.00
             360.75,361.17 372.41,372.87 381.53,389.00
             385.25,395.58 385.57,406.51 377.96,410.55
             374.87,412.19 371.39,411.99 368.00,412.00
             368.00,412.00 109.00,412.00 109.00,412.00
             109.00,412.00 45.00,412.00 45.00,412.00
             33.35,411.84 31.02,406.60 31.00,396.00
             31.00,396.00 31.00,324.00 31.00,324.00
             31.14,313.53 39.88,305.72 39.78,299.58
             39.78,299.58 32.90,281.00 32.90,281.00
             31.46,276.19 31.99,265.48 32.00,260.00
             32.03,239.52 42.68,227.10 57.00,213.92
             66.58,205.10 71.99,200.84 83.00,193.95
             83.00,193.95 107.00,180.69 107.00,180.69
             107.00,180.69 187.00,139.69 187.00,139.69
             187.00,139.69 222.00,119.99 222.00,119.99
             222.00,119.99 246.00,106.26 246.00,106.26
             246.00,106.26 267.00,98.10 267.00,98.10
             274.75,95.42 277.87,96.51 285.00,95.83
             304.92,93.93 322.12,93.67 339.00,106.00 Z
           M 389.00,110.00
           C 385.23,103.97 376.88,104.38 371.00,106.88
             358.90,112.02 351.46,124.76 348.00,137.00
             352.72,134.29 355.33,128.97 359.17,125.17
             366.09,118.33 379.21,110.89 389.00,110.00 Z
           M 337.00,129.00
           C 333.20,122.51 325.82,118.88 319.00,116.20
             300.99,109.13 271.17,114.45 254.00,122.31
             254.00,122.31 239.00,130.69 239.00,130.69
             239.00,130.69 203.00,150.74 203.00,150.74
             203.00,150.74 163.00,171.74 163.00,171.74
             163.00,171.74 122.00,192.69 122.00,192.69
             104.44,202.19 93.32,205.63 77.00,219.08
             63.29,230.39 47.42,246.80 48.04,266.00
             48.26,272.91 50.73,280.78 53.64,287.00
             56.25,292.58 59.24,298.03 62.88,303.00
             68.51,310.68 76.87,320.51 84.00,326.71
             95.43,336.65 115.59,349.78 130.00,354.48
             130.00,354.48 148.00,358.74 148.00,358.74
             157.12,360.44 162.91,360.00 172.00,360.00
             177.84,360.00 181.68,359.20 187.00,362.00
             187.00,362.00 183.00,364.00 183.00,364.00
             183.00,364.00 205.00,366.00 205.00,366.00
             205.00,366.00 205.00,369.00 205.00,369.00
             205.00,369.00 167.00,366.17 167.00,366.17
             167.00,366.17 144.00,363.70 144.00,363.70
             144.00,363.70 134.00,361.42 134.00,361.42
             113.42,356.88 95.91,350.68 77.00,341.25
             77.00,341.25 56.01,329.19 56.01,329.19
             54.00,327.92 50.52,324.94 48.06,325.72
             44.50,326.84 45.01,332.08 45.00,335.00
             45.00,335.00 45.00,389.00 45.00,389.00
             45.02,397.64 45.36,397.98 54.00,398.00
             54.00,398.00 368.00,398.00 368.00,398.00
             356.84,378.12 350.11,375.97 332.00,364.31
             328.89,362.31 319.81,356.03 317.00,354.99
             317.00,354.99 311.00,353.85 311.00,353.85
             308.49,353.13 306.74,351.70 304.00,351.36
             304.00,351.36 274.00,356.00 274.00,356.00
             277.41,350.55 290.77,348.56 297.00,347.21
             297.00,347.21 331.00,339.79 331.00,339.79
             331.00,339.79 343.00,334.95 343.00,334.95
             347.68,333.06 357.35,329.10 360.00,325.00
             349.40,323.60 341.70,323.02 331.00,323.00
             331.00,323.00 314.00,322.00 314.00,322.00
             314.00,322.00 293.00,321.00 293.00,321.00
             293.00,321.00 278.00,321.00 278.00,321.00
             278.00,321.00 225.00,314.54 225.00,314.54
             225.00,314.54 208.00,309.87 208.00,309.87
             194.56,306.50 175.75,303.02 162.00,303.00
             162.00,303.00 120.00,304.00 120.00,304.00
             117.35,304.00 114.57,304.11 112.00,303.36
             103.05,300.78 93.57,289.61 94.11,280.00
             94.46,273.61 99.82,264.61 104.10,260.02
             108.80,254.98 112.09,253.71 118.00,250.75
             121.51,249.00 127.61,245.53 131.00,244.52
             138.43,242.28 154.65,242.91 163.00,243.00
             163.00,243.00 192.00,245.51 192.00,245.51
             192.00,245.51 215.00,252.12 215.00,252.12
             215.00,252.12 247.00,258.75 247.00,258.75
             247.00,258.75 263.00,260.28 263.00,260.28
             263.00,260.28 314.00,266.00 314.00,266.00
             314.00,266.00 329.00,267.00 329.00,267.00
             329.00,267.00 366.00,267.00 366.00,267.00
             384.81,266.97 417.81,257.93 434.00,248.58
             434.00,248.58 441.00,244.64 441.00,244.64
             449.02,240.87 450.74,240.97 452.72,231.00
             452.94,228.76 453.08,226.27 452.72,224.00
             452.60,219.99 450.46,212.84 445.96,211.81
             443.21,211.18 438.49,214.00 436.00,215.25
             436.00,215.25 415.00,225.23 415.00,225.23
             411.17,226.98 398.76,231.78 396.64,234.53
             394.86,236.83 395.97,242.87 396.00,246.00
             389.94,244.22 386.39,239.34 382.00,235.00
             382.00,235.00 366.00,221.08 366.00,221.08
             363.69,219.18 357.76,214.17 355.00,213.71
             350.63,212.97 347.28,218.20 344.72,220.96
             339.93,226.12 334.22,229.18 328.00,232.24
             308.20,242.00 284.94,246.25 263.00,246.00
             250.44,245.85 232.54,239.73 223.04,231.54
             218.94,228.00 214.97,222.72 217.04,217.02
             217.45,215.89 218.17,214.48 219.30,213.91
             221.38,212.86 222.98,214.49 224.08,216.08
             226.62,219.74 225.50,222.86 235.00,229.56
             245.77,237.16 256.28,238.48 269.00,239.02
             274.55,239.28 275.19,240.60 281.00,239.02
             275.66,235.88 269.38,236.60 262.00,231.87
             247.18,222.37 247.00,205.51 247.00,190.00
             251.99,192.81 251.26,196.80 252.42,202.00
             253.70,207.69 255.74,214.39 259.39,219.00
             271.80,234.66 295.23,234.81 313.00,231.20
             318.90,230.00 326.37,228.99 331.00,225.00
             315.02,228.60 293.31,230.61 278.00,223.69
             259.71,215.42 243.85,190.14 255.96,171.00
             260.10,164.46 266.36,159.93 272.00,154.83
             272.00,154.83 281.00,146.47 281.00,146.47
             289.19,139.81 301.32,134.13 312.00,134.00
             316.04,133.95 327.23,134.92 330.00,134.00
             313.45,129.17 299.76,125.06 284.00,135.24
             272.83,142.46 262.69,159.21 249.00,160.00
             250.89,153.71 260.86,147.03 266.00,142.58
             273.35,136.20 277.77,130.41 287.00,125.98
             295.75,121.78 312.63,122.29 322.00,124.50
             322.00,124.50 337.00,129.00 337.00,129.00 Z
           M 408.00,120.00
           C 404.99,118.33 402.46,116.93 399.00,116.33
             387.15,114.25 372.29,122.06 364.00,130.04
             360.53,133.38 354.46,138.85 355.00,144.00
             364.30,130.92 375.24,124.25 391.00,121.46
             396.52,120.49 402.98,121.99 408.00,120.00 Z
           M 427.00,140.00
           C 416.49,127.27 403.38,125.02 388.00,128.65
             381.92,130.09 377.10,131.75 372.00,135.49
             367.68,138.66 359.41,146.61 358.79,152.00
             358.35,153.56 358.86,157.20 358.79,159.00
             365.82,156.09 369.82,151.17 378.00,147.75
             393.09,141.42 410.82,140.00 427.00,140.00 Z
           M 334.00,136.00
           C 334.00,136.00 333.00,136.00 333.00,136.00
             333.00,136.00 334.00,137.00 334.00,137.00
             334.00,137.00 334.00,136.00 334.00,136.00 Z
           M 354.00,165.00
           C 353.34,157.73 351.58,155.29 346.00,150.59
             335.83,142.04 325.76,140.85 313.00,141.00
             296.20,141.20 288.82,148.37 277.00,158.71
             264.66,169.51 258.05,172.19 258.00,190.00
             281.41,190.00 291.19,178.54 311.00,170.45
             327.45,163.74 336.88,165.00 354.00,165.00 Z
           M 435.00,185.00
           C 439.24,183.76 444.57,181.43 446.25,176.96
             448.90,169.90 439.59,152.91 433.91,148.85
             429.69,145.84 425.90,146.01 421.00,146.00
             407.21,145.98 392.73,147.53 380.00,153.31
             373.44,156.29 367.02,160.99 361.00,165.00
             361.00,165.00 365.17,186.91 365.17,186.91
             369.02,193.91 381.75,196.04 389.00,197.00
             389.00,187.03 390.69,167.75 397.53,160.21
             399.60,157.93 402.13,156.57 405.00,155.55
             425.75,148.12 432.80,168.66 435.00,185.00 Z
           M 339.00,214.00
           C 350.99,207.81 356.85,195.14 357.00,182.00
             357.03,179.32 357.40,174.60 355.40,172.60
             353.53,170.73 343.80,170.33 341.00,170.51
             330.38,171.19 324.23,171.32 314.00,175.45
             295.22,183.04 282.40,195.51 260.00,196.00
             263.36,207.40 276.31,216.94 288.00,218.00
             290.31,206.70 298.52,190.05 309.00,184.57
             311.88,183.06 313.86,183.04 317.00,183.00
             336.12,182.77 339.00,198.40 339.00,214.00 Z
           M 419.00,178.00
           C 417.67,179.11 416.86,179.55 415.86,181.11
             415.29,181.99 414.86,182.97 414.68,184.00
             413.07,192.96 425.41,190.04 421.81,182.00
             421.13,180.48 420.01,179.28 419.00,178.00 Z
           M 451.00,184.00
           C 451.00,184.00 442.00,190.65 442.00,190.65
             428.35,198.74 403.91,205.18 388.00,205.00
             381.75,204.92 376.88,203.23 371.00,201.36
             368.81,200.60 365.51,199.14 363.71,201.36
             361.70,203.94 364.37,207.07 366.11,208.83
             370.23,213.00 377.64,217.71 383.00,220.22
             395.10,225.89 405.07,222.24 416.00,216.00
             420.21,213.59 422.61,212.62 426.00,209.00
             426.00,209.00 390.00,213.00 390.00,213.00
             390.00,213.00 377.00,213.00 377.00,213.00
             377.26,211.44 377.25,209.91 378.60,208.77
             380.18,207.43 383.06,207.95 385.00,207.95
             385.00,207.95 398.00,206.83 398.00,206.83
             409.85,205.59 427.33,200.49 438.00,195.24
             444.00,192.29 448.95,190.91 451.00,184.00 Z
           M 313.00,221.00
           C 314.81,219.92 316.15,219.18 317.70,217.67
             318.44,216.94 319.40,215.84 319.95,214.96
             322.89,210.21 319.39,207.20 317.02,207.20
             313.42,207.20 311.12,212.98 311.32,216.00
             311.46,218.00 312.20,219.25 313.00,221.00 Z
           M 333.00,224.00
           C 333.00,224.00 332.00,224.00 332.00,224.00
             332.00,224.00 333.00,225.00 333.00,225.00
             333.00,225.00 333.00,224.00 333.00,224.00 Z
           M 443.00,251.00
           C 427.62,256.37 401.14,267.85 386.00,270.69
             369.27,273.83 351.98,274.03 335.00,274.00
             335.00,274.00 318.00,273.00 318.00,273.00
             318.00,273.00 291.00,271.83 291.00,271.83
             291.00,271.83 279.00,270.16 279.00,270.16
             279.00,270.16 262.00,268.57 262.00,268.57
             262.00,268.57 216.00,258.85 216.00,258.85
             216.00,258.85 196.00,252.66 196.00,252.66
             196.00,252.66 178.00,249.96 178.00,249.96
             178.00,249.96 169.00,249.96 169.00,249.96
             169.00,249.96 145.00,248.04 145.00,248.04
             133.43,248.41 115.27,255.38 107.68,264.17
             99.34,273.84 98.16,287.18 109.02,295.58
             115.00,300.21 122.05,299.11 129.00,298.28
             129.00,298.28 152.00,297.32 152.00,297.32
             152.00,297.32 180.00,299.28 180.00,299.28
             180.00,299.28 220.00,307.20 220.00,307.20
             220.00,307.20 238.00,309.29 238.00,309.29
             238.00,309.29 268.00,314.00 268.00,314.00
             268.00,314.00 280.00,314.00 280.00,314.00
             280.00,314.00 289.00,315.00 289.00,315.00
             289.00,315.00 298.00,315.00 298.00,315.00
             298.00,315.00 319.00,317.83 319.00,317.83
             319.00,317.83 340.00,319.00 340.00,319.00
             340.00,319.00 355.00,320.08 355.00,320.08
             355.00,320.08 366.00,320.08 366.00,320.08
             374.57,321.03 372.66,322.13 384.00,322.00
             397.47,321.84 405.84,317.15 417.00,310.40
             420.67,308.18 426.62,305.01 426.38,300.00
             426.17,295.50 422.49,292.19 418.00,292.72
             418.00,292.72 405.00,295.72 405.00,295.72
             388.16,298.53 374.13,300.20 357.00,300.00
             357.00,300.00 347.00,299.09 347.00,299.09
             347.00,299.09 325.00,297.83 325.00,297.83
             325.00,297.83 313.00,296.17 313.00,296.17
             313.00,296.17 268.00,292.72 268.00,292.72
             268.00,292.72 248.00,289.35 248.00,289.35
             248.00,289.35 231.00,285.09 231.00,285.09
             231.00,285.09 196.00,280.28 196.00,280.28
             196.00,280.28 188.00,279.70 188.00,279.70
             174.01,277.70 163.90,273.41 148.00,273.01
             145.81,272.96 135.73,273.67 137.34,269.12
             138.89,264.71 149.45,266.07 153.00,266.58
             153.00,266.58 178.00,271.60 178.00,271.60
             178.00,271.60 203.00,275.58 203.00,275.58
             203.00,275.58 226.00,278.42 226.00,278.42
             246.71,282.16 266.82,286.90 288.00,287.00
             288.00,287.00 355.00,294.00 355.00,294.00
             355.00,294.00 367.00,294.00 367.00,294.00
             377.00,293.98 392.08,290.93 402.00,288.65
             413.98,285.90 420.42,285.19 431.00,277.97
             441.23,270.99 449.95,263.76 443.00,251.00 Z
           M 59.00,306.00
           C 56.63,309.06 52.68,317.01 53.77,320.91
             54.66,324.08 59.32,326.75 62.00,328.39
             69.77,333.13 77.70,337.16 86.00,340.86
             90.67,342.94 99.08,348.22 104.00,347.00
             84.96,336.82 71.68,323.25 59.00,306.00 Z
           M 110.00,350.00
           C 110.00,350.00 109.00,350.00 109.00,350.00
             109.00,350.00 110.00,351.00 110.00,351.00
             110.00,351.00 110.00,350.00 110.00,350.00 Z" />
</svg>
